name rise35.5848peak51.9257fall54.8793.mot
datacolumns 19
datarows 24
range 5.28663900000000 5.32497700000000
endheader
time	ground_force1_vx	ground_force1_vy	ground_force1_vz	ground_force1_px	ground_force1_py	ground_force1_pz	ground_force2_vx	ground_force2_vy	ground_force2_vz	ground_force2_px	ground_force2_py	ground_force2_pz	ground_torque1_x	ground_torque1_y	ground_torque1_z	ground_torque2_x	ground_torque2_y	ground_torque2_z	
5.28663900000000	60.90475200000000	775.73791700000004	61.79950200000000	0.34704000000000	0.00000000000000	0.12177800000000	0.00000000000000	0.00000000000000	0.00000000000000	0.00000000000000	0.00000000000000	0.00000000000000	0.00000000000000	27.39445800000000	0.00000000000000	0.00000000000000	0.00000000000000	0.00000000000000	
5.28832200000000	60.14524200000000	777.05084099999999	61.89740900000000	0.34584500000000	0.00000000000000	0.12180500000000	0.00000000000000	0.00000000000000	0.00000000000000	0.00000000000000	0.00000000000000	0.00000000000000	0.00000000000000	27.50928100000000	0.00000000000000	0.00000000000000	0.00000000000000	0.00000000000000	
5.28997600000000	59.39075400000000	778.23382400000003	61.98094700000000	0.34466600000000	0.00000000000000	0.12183200000000	0.00000000000000	0.00000000000000	0.00000000000000	0.00000000000000	0.00000000000000	0.00000000000000	0.00000000000000	27.61456900000000	0.00000000000000	0.00000000000000	0.00000000000000	0.00000000000000	
5.29164400000000	58.64260900000000	779.28764500000000	62.05048700000000	0.34350400000000	0.00000000000000	0.12185800000000	0.00000000000000	0.00000000000000	0.00000000000000	0.00000000000000	0.00000000000000	0.00000000000000	0.00000000000000	27.71041400000000	0.00000000000000	0.00000000000000	0.00000000000000	0.00000000000000	
5.29332200000000	57.90202900000000	780.21319700000004	62.10637800000000	0.34235900000000	0.00000000000000	0.12188300000000	0.00000000000000	0.00000000000000	0.00000000000000	0.00000000000000	0.00000000000000	0.00000000000000	0.00000000000000	27.79690300000000	0.00000000000000	0.00000000000000	0.00000000000000	0.00000000000000	
5.29497400000000	57.17014100000000	781.01150099999995	62.14894700000000	0.34123200000000	0.00000000000000	0.12190600000000	0.00000000000000	0.00000000000000	0.00000000000000	0.00000000000000	0.00000000000000	0.00000000000000	0.00000000000000	27.87411500000000	0.00000000000000	0.00000000000000	0.00000000000000	0.00000000000000	
5.29664100000000	56.44797700000000	781.68370700000003	62.17849900000000	0.34012300000000	0.00000000000000	0.12192900000000	0.00000000000000	0.00000000000000	0.00000000000000	0.00000000000000	0.00000000000000	0.00000000000000	0.00000000000000	27.94212600000000	0.00000000000000	0.00000000000000	0.00000000000000	0.00000000000000	
5.29832000000000	55.73647300000000	782.23110399999996	62.19532200000000	0.33903100000000	0.00000000000000	0.12195000000000	0.00000000000000	0.00000000000000	0.00000000000000	0.00000000000000	0.00000000000000	0.00000000000000	0.00000000000000	28.00100600000000	0.00000000000000	0.00000000000000	0.00000000000000	0.00000000000000	
5.29997700000000	55.03647000000000	782.65512400000000	62.19968600000000	0.33795900000000	0.00000000000000	0.12197100000000	0.00000000000000	0.00000000000000	0.00000000000000	0.00000000000000	0.00000000000000	0.00000000000000	0.00000000000000	28.05082100000000	0.00000000000000	0.00000000000000	0.00000000000000	0.00000000000000	
5.30164000000000	54.34871400000000	782.95734900000002	62.19184600000000	0.33690400000000	0.00000000000000	0.12199000000000	0.00000000000000	0.00000000000000	0.00000000000000	0.00000000000000	0.00000000000000	0.00000000000000	0.00000000000000	28.09163800000000	0.00000000000000	0.00000000000000	0.00000000000000	0.00000000000000	
5.30335000000000	53.67386200000000	783.13951599999996	62.17204200000000	0.33586800000000	0.00000000000000	0.12200800000000	0.00000000000000	0.00000000000000	0.00000000000000	0.00000000000000	0.00000000000000	0.00000000000000	0.00000000000000	28.12351800000000	0.00000000000000	0.00000000000000	0.00000000000000	0.00000000000000	
5.30497400000000	53.01247800000000	783.20351700000003	62.14050300000000	0.33485000000000	0.00000000000000	0.12202400000000	0.00000000000000	0.00000000000000	0.00000000000000	0.00000000000000	0.00000000000000	0.00000000000000	0.00000000000000	28.14652800000000	0.00000000000000	0.00000000000000	0.00000000000000	0.00000000000000	
5.30663900000000	52.36504000000000	783.15140499999995	62.09745000000000	0.33385000000000	0.00000000000000	0.12203900000000	0.00000000000000	0.00000000000000	0.00000000000000	0.00000000000000	0.00000000000000	0.00000000000000	0.00000000000000	28.16073300000000	0.00000000000000	0.00000000000000	0.00000000000000	0.00000000000000	
5.30832200000000	51.73194100000000	782.98539700000003	62.04309300000000	0.33286800000000	0.00000000000000	0.12205300000000	0.00000000000000	0.00000000000000	0.00000000000000	0.00000000000000	0.00000000000000	0.00000000000000	0.00000000000000	28.16620300000000	0.00000000000000	0.00000000000000	0.00000000000000	0.00000000000000	
5.30997800000000	51.11348900000000	782.70787199999995	61.97763800000000	0.33190300000000	0.00000000000000	0.12206500000000	0.00000000000000	0.00000000000000	0.00000000000000	0.00000000000000	0.00000000000000	0.00000000000000	0.00000000000000	28.16300900000000	0.00000000000000	0.00000000000000	0.00000000000000	0.00000000000000	
5.31163900000000	50.50991600000000	782.32137000000000	61.90128700000000	0.33095500000000	0.00000000000000	0.12207700000000	0.00000000000000	0.00000000000000	0.00000000000000	0.00000000000000	0.00000000000000	0.00000000000000	0.00000000000000	28.15123200000000	0.00000000000000	0.00000000000000	0.00000000000000	0.00000000000000	
5.31335100000000	49.92137700000000	781.82859900000005	61.81424200000000	0.33002300000000	0.00000000000000	0.12208600000000	0.00000000000000	0.00000000000000	0.00000000000000	0.00000000000000	0.00000000000000	0.00000000000000	0.00000000000000	28.13095400000000	0.00000000000000	0.00000000000000	0.00000000000000	0.00000000000000	
5.31497200000000	49.34795400000000	781.23242400000004	61.71670100000000	0.32910600000000	0.00000000000000	0.12209400000000	0.00000000000000	0.00000000000000	0.00000000000000	0.00000000000000	0.00000000000000	0.00000000000000	0.00000000000000	28.10226800000000	0.00000000000000	0.00000000000000	0.00000000000000	0.00000000000000	
5.31664300000000	48.78966300000000	780.53587000000005	61.60886800000000	0.32820500000000	0.00000000000000	0.12210100000000	0.00000000000000	0.00000000000000	0.00000000000000	0.00000000000000	0.00000000000000	0.00000000000000	0.00000000000000	28.06527400000000	0.00000000000000	0.00000000000000	0.00000000000000	0.00000000000000	
5.31831700000000	48.24645400000000	779.74212000000000	61.49094900000000	0.32731800000000	0.00000000000000	0.12210600000000	0.00000000000000	0.00000000000000	0.00000000000000	0.00000000000000	0.00000000000000	0.00000000000000	0.00000000000000	28.02008100000000	0.00000000000000	0.00000000000000	0.00000000000000	0.00000000000000	
5.31997400000000	47.71821500000000	778.85450500000002	61.36315500000000	0.32644400000000	0.00000000000000	0.12211000000000	0.00000000000000	0.00000000000000	0.00000000000000	0.00000000000000	0.00000000000000	0.00000000000000	0.00000000000000	27.96681000000000	0.00000000000000	0.00000000000000	0.00000000000000	0.00000000000000	
5.32164300000000	47.20478200000000	777.87650399999995	61.22570300000000	0.32558300000000	0.00000000000000	0.12211200000000	0.00000000000000	0.00000000000000	0.00000000000000	0.00000000000000	0.00000000000000	0.00000000000000	0.00000000000000	27.90558800000000	0.00000000000000	0.00000000000000	0.00000000000000	0.00000000000000	
5.32331800000000	46.70593500000000	776.81173799999999	61.07882100000000	0.32473300000000	0.00000000000000	0.12211200000000	0.00000000000000	0.00000000000000	0.00000000000000	0.00000000000000	0.00000000000000	0.00000000000000	0.00000000000000	27.83655900000000	0.00000000000000	0.00000000000000	0.00000000000000	0.00000000000000	
5.32497700000000	46.22140800000000	775.66395999999997	60.92274300000000	0.32389400000000	0.00000000000000	0.12211100000000	0.00000000000000	0.00000000000000	0.00000000000000	0.00000000000000	0.00000000000000	0.00000000000000	0.00000000000000	27.75987400000000	0.00000000000000	0.00000000000000	0.00000000000000	0.00000000000000	
